<svg xmlns="http://www.w3.org/2000/svg" width="2000" height="1800" viewBox="0 0 2000 1800" font-family="Segoe UI, Verdana, sans-serif">
<rect x="0" y="0" width="2000" height="1800" fill="#FFFFFF"/>
<text x="1000.0" y="38" text-anchor="middle" font-size="24" font-weight="700" fill="#111111">AEGIS — Chen Entity Relationship Diagram</text>
<text x="1000.0" y="61" text-anchor="middle" font-size="14" font-style="italic" fill="#444444">Conceptual data model: Child Safety Wearable Monitoring System</text>
<rect x="130.0" y="211.0" width="180" height="58" fill="#F4F7FB" stroke="#1A1A1A" stroke-width="2"/>
<text x="220" y="245" text-anchor="middle" font-size="15" font-weight="700" fill="#0D0D0D">Parent</text>
<rect x="930.0" y="211.0" width="180" height="58" fill="#F4F7FB" stroke="#1A1A1A" stroke-width="2"/>
<text x="1020" y="245" text-anchor="middle" font-size="15" font-weight="700" fill="#0D0D0D">Child</text>
<rect x="530.0" y="531.0" width="180" height="58" fill="#F4F7FB" stroke="#1A1A1A" stroke-width="2"/>
<text x="620" y="565" text-anchor="middle" font-size="15" font-weight="700" fill="#0D0D0D">Wearable Device</text>
<rect x="930.0" y="531.0" width="180" height="58" fill="#F4F7FB" stroke="#1A1A1A" stroke-width="2"/>
<text x="1020" y="565" text-anchor="middle" font-size="15" font-weight="700" fill="#0D0D0D">Calibration Profile</text>
<rect x="1410.0" y="531.0" width="180" height="58" fill="#F4F7FB" stroke="#1A1A1A" stroke-width="2"/>
<text x="1500" y="565" text-anchor="middle" font-size="15" font-weight="700" fill="#0D0D0D">Safe Zone</text>
<rect x="530.0" y="851.0" width="180" height="58" fill="#F4F7FB" stroke="#1A1A1A" stroke-width="2"/>
<text x="620" y="885" text-anchor="middle" font-size="15" font-weight="700" fill="#0D0D0D">Vitals Reading</text>
<rect x="930.0" y="1161.0" width="180" height="58" fill="#F4F7FB" stroke="#1A1A1A" stroke-width="2"/>
<text x="1020" y="1195" text-anchor="middle" font-size="15" font-weight="700" fill="#0D0D0D">Alert</text>
<rect x="530.0" y="1431.0" width="180" height="58" fill="#F4F7FB" stroke="#1A1A1A" stroke-width="2"/>
<text x="620" y="1465" text-anchor="middle" font-size="15" font-weight="700" fill="#0D0D0D">Stress Alert</text>
<rect x="1410.0" y="1431.0" width="180" height="58" fill="#F4F7FB" stroke="#1A1A1A" stroke-width="2"/>
<text x="1500" y="1465" text-anchor="middle" font-size="15" font-weight="700" fill="#0D0D0D">Geofence Alert</text>
<polygon points="620,206.0 690.0,240 620,274.0 550.0,240" fill="#FCE9B0" stroke="#1A1A1A" stroke-width="1.8"/>
<text x="620" y="245" text-anchor="middle" font-size="13.5" font-weight="700" fill="#0D0D0D">Onboards</text>
<polygon points="820,366.0 890.0,400 820,434.0 750.0,400" fill="#FCE9B0" stroke="#1A1A1A" stroke-width="1.8"/>
<text x="820" y="405" text-anchor="middle" font-size="13.5" font-weight="700" fill="#0D0D0D">Wears</text>
<polygon points="1020,366.0 1090.0,400 1020,434.0 950.0,400" fill="#FCE9B0" stroke="#1A1A1A" stroke-width="1.8"/>
<text x="1020" y="405" text-anchor="middle" font-size="13.5" font-weight="700" fill="#0D0D0D">Establishes</text>
<polygon points="1260,366.0 1330.0,400 1260,434.0 1190.0,400" fill="#FCE9B0" stroke="#1A1A1A" stroke-width="1.8"/>
<text x="1260" y="405" text-anchor="middle" font-size="13.5" font-weight="700" fill="#0D0D0D">Defines</text>
<polygon points="620,686.0 690.0,720 620,754.0 550.0,720" fill="#FCE9B0" stroke="#1A1A1A" stroke-width="1.8"/>
<text x="620" y="725" text-anchor="middle" font-size="13.5" font-weight="700" fill="#0D0D0D">Captures</text>
<polygon points="820,1001.0 890.0,1035 820,1069.0 750.0,1035" fill="#FCE9B0" stroke="#1A1A1A" stroke-width="1.8"/>
<text x="820" y="1040" text-anchor="middle" font-size="13.5" font-weight="700" fill="#0D0D0D">Triggers</text>
<polygon points="1500,981.0 1570.0,1015 1500,1049.0 1430.0,1015" fill="#FCE9B0" stroke="#1A1A1A" stroke-width="1.8"/>
<text x="1500" y="1020" text-anchor="middle" font-size="13.5" font-weight="700" fill="#0D0D0D">Causes</text>
<polygon points="540,1156.0 610.0,1190 540,1224.0 470.0,1190" fill="#FCE9B0" stroke="#1A1A1A" stroke-width="1.8"/>
<text x="540" y="1195" text-anchor="middle" font-size="13.5" font-weight="700" fill="#0D0D0D">Notifies</text>
<line x1="550.0" y1="240.0" x2="310.0" y2="240.0" stroke="#1A1A1A" stroke-width="1.4"/>
<rect x="342.2" y="228.0" width="22" height="16" fill="#FFFFFF"/>
<text x="353.2" y="240.0" text-anchor="middle" font-size="13.5" font-weight="700" fill="#0D0D0D">1</text>
<line x1="690.0" y1="236.8" x2="930.0" y2="236.8" stroke="#1A1A1A" stroke-width="1.4"/>
<line x1="690.0" y1="243.2" x2="930.0" y2="243.2" stroke="#1A1A1A" stroke-width="1.4"/>
<rect x="875.8" y="228.0" width="22" height="16" fill="#FFFFFF"/>
<text x="886.8" y="240.0" text-anchor="middle" font-size="13.5" font-weight="700" fill="#0D0D0D">N</text>
<line x1="844.4454202922703" y1="376.34566425422673" x2="981.7509758478259" y2="266.5012198097823" stroke="#1A1A1A" stroke-width="1.4"/>
<line x1="848.4434685966186" y1="381.34322463466214" x2="985.7490241521741" y2="271.4987801902177" stroke="#1A1A1A" stroke-width="1.4"/>
<rect x="948.035" y="276.772" width="22" height="16" fill="#FFFFFF"/>
<text x="959.035" y="288.772" text-anchor="middle" font-size="13.5" font-weight="700" fill="#0D0D0D">1</text>
<line x1="793.5555555555555" y1="421.15555555555557" x2="656.25" y2="531.0" stroke="#1A1A1A" stroke-width="1.4"/>
<rect x="669.965" y="499.228" width="22" height="16" fill="#FFFFFF"/>
<text x="680.965" y="511.228" text-anchor="middle" font-size="13.5" font-weight="700" fill="#0D0D0D">1</text>
<line x1="1020.0" y1="366.0" x2="1020.0" y2="269.0" stroke="#1A1A1A" stroke-width="1.4"/>
<rect x="1009.0" y="274.46" width="22" height="16" fill="#FFFFFF"/>
<text x="1020.0" y="286.46" text-anchor="middle" font-size="13.5" font-weight="700" fill="#0D0D0D">1</text>
<line x1="1023.2" y1="434.0" x2="1023.2" y2="531.0" stroke="#1A1A1A" stroke-width="1.4"/>
<line x1="1016.8" y1="434.0" x2="1016.8" y2="531.0" stroke="#1A1A1A" stroke-width="1.4"/>
<rect x="1009.0" y="501.53999999999996" width="22" height="16" fill="#FFFFFF"/>
<text x="1020.0" y="513.54" text-anchor="middle" font-size="13.5" font-weight="700" fill="#0D0D0D">1</text>
<line x1="1230.495867768595" y1="380.3305785123967" x2="1063.5" y2="269.0" stroke="#1A1A1A" stroke-width="1.4"/>
<rect x="1082.5592561983472" y="277.0395041322314" width="22" height="16" fill="#FFFFFF"/>
<text x="1093.5592561983472" y="289.0395041322314" text-anchor="middle" font-size="13.5" font-weight="700" fill="#0D0D0D">1</text>
<line x1="1291.2791728593259" y1="417.0068605457222" x2="1458.2750406279208" y2="528.3374390581189" stroke="#1A1A1A" stroke-width="1.4"/>
<line x1="1287.7290916034842" y1="422.3319824294844" x2="1454.7249593720792" y2="533.6625609418811" stroke="#1A1A1A" stroke-width="1.4"/>
<rect x="1415.4407438016528" y="498.9604958677686" width="22" height="16" fill="#FFFFFF"/>
<text x="1426.4407438016528" y="510.9604958677686" text-anchor="middle" font-size="13.5" font-weight="700" fill="#0D0D0D">N</text>
<line x1="620.0" y1="686.0" x2="620.0" y2="589.0" stroke="#1A1A1A" stroke-width="1.4"/>
<rect x="609.0" y="594.46" width="22" height="16" fill="#FFFFFF"/>
<text x="620.0" y="606.46" text-anchor="middle" font-size="13.5" font-weight="700" fill="#0D0D0D">1</text>
<line x1="623.2" y1="754.0" x2="623.2" y2="851.0" stroke="#1A1A1A" stroke-width="1.4"/>
<line x1="616.8" y1="754.0" x2="616.8" y2="851.0" stroke="#1A1A1A" stroke-width="1.4"/>
<rect x="609.0" y="821.54" width="22" height="16" fill="#FFFFFF"/>
<text x="620.0" y="833.54" text-anchor="middle" font-size="13.5" font-weight="700" fill="#0D0D0D">N</text>
<line x1="793.0311614730879" y1="1014.099150141643" x2="657.4193548387096" y2="909.0" stroke="#1A1A1A" stroke-width="1.4"/>
<rect x="670.8294800328977" y="915.9178470254957" width="22" height="16" fill="#FFFFFF"/>
<text x="681.8294800328977" y="927.9178470254957" text-anchor="middle" font-size="13.5" font-weight="700" fill="#0D0D0D">1</text>
<line x1="848.9290678563067" y1="1053.371521691396" x2="984.5408744906849" y2="1158.4706718330392" stroke="#1A1A1A" stroke-width="1.4"/>
<line x1="845.0086091975176" y1="1058.4301780253177" x2="980.6204158318958" y2="1163.5293281669608" stroke="#1A1A1A" stroke-width="1.4"/>
<rect x="947.1705199671023" y="1130.0821529745042" width="22" height="16" fill="#FFFFFF"/>
<text x="958.1705199671023" y="1142.0821529745042" text-anchor="middle" font-size="13.5" font-weight="700" fill="#0D0D0D">N</text>
<line x1="1500.0" y1="981.0" x2="1500.0" y2="589.0" stroke="#1A1A1A" stroke-width="1.4"/>
<rect x="1489.0" y="647.56" width="22" height="16" fill="#FFFFFF"/>
<text x="1500.0" y="659.56" text-anchor="middle" font-size="13.5" font-weight="700" fill="#0D0D0D">1</text>
<line x1="1503.2" y1="1049.0" x2="1503.2" y2="1431.0" stroke="#1A1A1A" stroke-width="1.4"/>
<line x1="1496.8" y1="1049.0" x2="1496.8" y2="1431.0" stroke="#1A1A1A" stroke-width="1.4"/>
<rect x="1489.0" y="1350.24" width="22" height="16" fill="#FFFFFF"/>
<text x="1500.0" y="1362.24" text-anchor="middle" font-size="13.5" font-weight="700" fill="#0D0D0D">N</text>
<line x1="610.0" y1="1186.8" x2="930.0" y2="1186.8" stroke="#1A1A1A" stroke-width="1.4"/>
<line x1="610.0" y1="1193.2" x2="930.0" y2="1193.2" stroke="#1A1A1A" stroke-width="1.4"/>
<rect x="893.4000000000001" y="1178.0" width="22" height="16" fill="#FFFFFF"/>
<text x="904.4000000000001" y="1190.0" text-anchor="middle" font-size="13.5" font-weight="700" fill="#0D0D0D">N</text>
<line x1="470.0" y1="1190.0" x2="220" y2="1190" stroke="#1A1A1A" stroke-width="1.4"/>
<line x1="220" y1="268" x2="220" y2="1190" stroke="#1A1A1A" stroke-width="1.4"/>
<rect x="209.0" y="717.0" width="22" height="16" fill="#FFFFFF"/>
<text x="220.0" y="729.0" text-anchor="middle" font-size="13.5" font-weight="700" fill="#0D0D0D">1</text>
<line x1="1020" y1="1219" x2="1020" y2="1284" stroke="#1A1A1A" stroke-width="1.4"/>
<line x1="1017" y1="1219" x2="1017" y2="1284" stroke="#1A1A1A" stroke-width="1.4"/>
<circle cx="1020" cy="1300" r="15" fill="#FFFFFF" stroke="#1A1A1A" stroke-width="1.6"/>
<text x="1020" y="1305" text-anchor="middle" font-size="13" font-weight="700">d</text>
<polygon points="1020,1340 935,1392 1105,1392" fill="#FFFFFF" stroke="#1A1A1A" stroke-width="1.6"/>
<text x="1020" y="1378" text-anchor="middle" font-size="12.5" font-weight="700">ISA</text>
<line x1="1020" y1="1315" x2="1020" y2="1340" stroke="#1A1A1A" stroke-width="1.4"/>
<line x1="935" y1="1392" x2="710.0" y2="1440.5714285714287" stroke="#1A1A1A" stroke-width="1.4"/>
<line x1="1105" y1="1392" x2="1410.0" y2="1444.506329113924" stroke="#1A1A1A" stroke-width="1.4"/>
<ellipse cx="70" cy="110" rx="72" ry="25" fill="#FFFFFF" stroke="#1A1A1A" stroke-width="1.6"/>
<text x="70" y="115" text-anchor="middle" font-size="12.5" text-decoration="underline" fill="#0D0D0D">ParentID</text>
<line x1="186.53846153846155" y1="211.0" x2="96.77705849018432" y2="133.20678402482642" stroke="#1A1A1A" stroke-width="1.4"/>
<ellipse cx="220" cy="110" rx="72" ry="25" fill="#FFFFFF" stroke="#1A1A1A" stroke-width="1.6"/>
<text x="220" y="115" text-anchor="middle" font-size="12.5" fill="#0D0D0D">FullName</text>
<line x1="220.0" y1="211.0" x2="220.0" y2="135.0" stroke="#1A1A1A" stroke-width="1.4"/>
<ellipse cx="370" cy="110" rx="72" ry="25" fill="#FFFFFF" stroke="#1A1A1A" stroke-width="1.6"/>
<text x="370" y="115" text-anchor="middle" font-size="12.5" fill="#0D0D0D">Email</text>
<line x1="253.46153846153845" y1="211.0" x2="343.22294150981566" y2="133.20678402482642" stroke="#1A1A1A" stroke-width="1.4"/>
<ellipse cx="520" cy="110" rx="72" ry="25" fill="#FFFFFF" stroke="#1A1A1A" stroke-width="1.6"/>
<text x="520" y="115" text-anchor="middle" font-size="12.5" fill="#0D0D0D">Phone</text>
<line x1="286.9230769230769" y1="211.0" x2="474.97804644515804" y2="129.5095132070982" stroke="#1A1A1A" stroke-width="1.4"/>
<ellipse cx="720" cy="110" rx="72" ry="25" fill="#FFFFFF" stroke="#1A1A1A" stroke-width="1.6"/>
<text x="720" y="115" text-anchor="middle" font-size="12.5" text-decoration="underline" fill="#0D0D0D">ChildID</text>
<line x1="953.0769230769231" y1="211.0" x2="765.021953554842" y2="129.5095132070982" stroke="#1A1A1A" stroke-width="1.4"/>
<ellipse cx="870" cy="110" rx="72" ry="25" fill="#FFFFFF" stroke="#1A1A1A" stroke-width="1.6"/>
<text x="870" y="115" text-anchor="middle" font-size="12.5" fill="#0D0D0D">FullName</text>
<line x1="986.5384615384615" y1="211.0" x2="896.7770584901843" y2="133.20678402482642" stroke="#1A1A1A" stroke-width="1.4"/>
<ellipse cx="1020" cy="110" rx="72" ry="25" fill="#FFFFFF" stroke="#1A1A1A" stroke-width="1.6"/>
<text x="1020" y="115" text-anchor="middle" font-size="12.5" fill="#0D0D0D">DateOfBirth</text>
<line x1="1020.0" y1="211.0" x2="1020.0" y2="135.0" stroke="#1A1A1A" stroke-width="1.4"/>
<ellipse cx="1170" cy="110" rx="72" ry="25" fill="#FFFFFF" stroke="#1A1A1A" stroke-width="1.6" stroke-dasharray="6,4"/>
<text x="1170" y="115" text-anchor="middle" font-size="12.5" font-style="italic" fill="#0D0D0D">Age</text>
<line x1="1053.4615384615386" y1="211.0" x2="1143.2229415098157" y2="133.20678402482642" stroke="#1A1A1A" stroke-width="1.4"/>
<ellipse cx="1320" cy="110" rx="72" ry="25" fill="#FFFFFF" stroke="#1A1A1A" stroke-width="1.6"/>
<text x="1320" y="115" text-anchor="middle" font-size="12.5" fill="#0D0D0D">PhotoURL</text>
<line x1="1086.923076923077" y1="211.0" x2="1274.978046445158" y2="129.5095132070982" stroke="#1A1A1A" stroke-width="1.4"/>
<ellipse cx="380" cy="400" rx="72" ry="25" fill="#FFFFFF" stroke="#1A1A1A" stroke-width="1.6"/>
<text x="380" y="405" text-anchor="middle" font-size="12.5" text-decoration="underline" fill="#0D0D0D">DeviceID</text>
<line x1="576.5" y1="531.0" x2="413.25927815626176" y2="422.17285210417447" stroke="#1A1A1A" stroke-width="1.4"/>
<ellipse cx="380" cy="460" rx="72" ry="25" fill="#FFFFFF" stroke="#1A1A1A" stroke-width="1.6"/>
<text x="380" y="465" text-anchor="middle" font-size="12.5" fill="#0D0D0D">Model</text>
<line x1="550.4" y1="531.0" x2="426.0932767758425" y2="479.2055319899344" stroke="#1A1A1A" stroke-width="1.4"/>
<ellipse cx="380" cy="520" rx="72" ry="25" fill="#FFFFFF" stroke="#1A1A1A" stroke-width="1.6"/>
<text x="380" y="525" text-anchor="middle" font-size="12.5" fill="#0D0D0D">FirmwareVersion</text>
<line x1="530.0" y1="545.0" x2="444.9096601377157" y2="530.8182766896193" stroke="#1A1A1A" stroke-width="1.4"/>
<ellipse cx="380" cy="580" rx="72" ry="25" fill="#FFFFFF" stroke="#1A1A1A" stroke-width="1.6"/>
<text x="380" y="585" text-anchor="middle" font-size="12.5" fill="#0D0D0D">BatteryLevel</text>
<line x1="530.0" y1="567.5" x2="450.01188574259726" y2="574.1656761881169" stroke="#1A1A1A" stroke-width="1.4"/>
<ellipse cx="1280" cy="500" rx="72" ry="25" fill="#FFFFFF" stroke="#1A1A1A" stroke-width="1.6"/>
<text x="1280" y="505" text-anchor="middle" font-size="12.5" text-decoration="underline" fill="#0D0D0D">ProfileID</text>
<line x1="1110.0" y1="539.2307692307693" x2="1220.035668366201" y2="513.8379226847229" stroke="#1A1A1A" stroke-width="1.4"/>
<ellipse cx="1280" cy="560" rx="72" ry="25" fill="#FFFFFF" stroke="#1A1A1A" stroke-width="1.6"/>
<text x="1280" y="565" text-anchor="middle" font-size="12.5" fill="#0D0D0D">BaselineHR</text>
<line x1="1110.0" y1="560.0" x2="1208.0" y2="560.0" stroke="#1A1A1A" stroke-width="1.4"/>
<ellipse cx="1280" cy="620" rx="72" ry="25" fill="#FFFFFF" stroke="#1A1A1A" stroke-width="1.6"/>
<text x="1280" y="625" text-anchor="middle" font-size="12.5" fill="#0D0D0D">BaselineEDA</text>
<line x1="1110.0" y1="580.7692307692307" x2="1220.035668366201" y2="606.1620773152771" stroke="#1A1A1A" stroke-width="1.4"/>
<ellipse cx="1280" cy="680" rx="72" ry="25" fill="#FFFFFF" stroke="#1A1A1A" stroke-width="1.6"/>
<text x="1280" y="685" text-anchor="middle" font-size="12.5" fill="#0D0D0D">BaselineTemp</text>
<line x1="1082.8333333333333" y1="589.0" x2="1236.7148087717364" y2="660.0222194331092" stroke="#1A1A1A" stroke-width="1.4"/>
<ellipse cx="1280" cy="740" rx="84" ry="25" fill="#FFFFFF" stroke="#1A1A1A" stroke-width="1.6" stroke-dasharray="6,4"/>
<text x="1280" y="745" text-anchor="middle" font-size="12.5" font-style="italic" fill="#0D0D0D">CalibrationProgress</text>
<line x1="1061.888888888889" y1="589.0" x2="1247.7211901001162" y2="717.6531316077728" stroke="#1A1A1A" stroke-width="1.4"/>
<ellipse cx="1750" cy="460" rx="72" ry="25" fill="#FFFFFF" stroke="#1A1A1A" stroke-width="1.6"/>
<text x="1750" y="465" text-anchor="middle" font-size="12.5" text-decoration="underline" fill="#0D0D0D">ZoneID</text>
<line x1="1572.5" y1="531.0" x2="1702.8018908698755" y2="478.8792436520498" stroke="#1A1A1A" stroke-width="1.4"/>
<ellipse cx="1750" cy="530" rx="72" ry="25" fill="#FFFFFF" stroke="#1A1A1A" stroke-width="1.6"/>
<text x="1750" y="535" text-anchor="middle" font-size="12.5" fill="#0D0D0D">ZoneName</text>
<line x1="1590.0" y1="549.2" x2="1681.9493606234755" y2="538.166076725183" stroke="#1A1A1A" stroke-width="1.4"/>
<ellipse cx="1750" cy="600" rx="72" ry="25" fill="#FFFFFF" stroke="#1A1A1A" stroke-width="1.6"/>
<text x="1750" y="605" text-anchor="middle" font-size="12.5" fill="#0D0D0D">Radius</text>
<line x1="1590.0" y1="574.4" x2="1684.6085630379794" y2="589.5373700860767" stroke="#1A1A1A" stroke-width="1.4"/>
<ellipse cx="1750" cy="700" rx="72" ry="25" fill="#FFFFFF" stroke="#1A1A1A" stroke-width="1.6"/>
<text x="1750" y="705" text-anchor="middle" font-size="12.5" fill="#0D0D0D">CenterCoordinate</text>
<line x1="1551.7857142857142" y1="589.0" x2="1712.0585898484076" y2="678.7528103151083" stroke="#1A1A1A" stroke-width="1.4"/>
<ellipse cx="1690" cy="775" rx="72" ry="25" fill="#FFFFFF" stroke="#1A1A1A" stroke-width="1.6"/>
<text x="1690" y="780" text-anchor="middle" font-size="12.5" fill="#0D0D0D">Latitude</text>
<ellipse cx="1820" cy="775" rx="72" ry="25" fill="#FFFFFF" stroke="#1A1A1A" stroke-width="1.6"/>
<text x="1820" y="780" text-anchor="middle" font-size="12.5" fill="#0D0D0D">Longitude</text>
<line x1="1750" y1="700" x2="1709.270358192599" y2="750.9120522592515" stroke="#1A1A1A" stroke-width="1.4"/>
<line x1="1750" y1="700" x2="1797.8031713781234" y2="751.2176836194179" stroke="#1A1A1A" stroke-width="1.4"/>
<ellipse cx="320" cy="740" rx="72" ry="25" fill="#FFFFFF" stroke="#1A1A1A" stroke-width="1.6"/>
<text x="320" y="745" text-anchor="middle" font-size="12.5" text-decoration="underline" fill="#0D0D0D">ReadingID</text>
<line x1="557.8571428571429" y1="851.0" x2="362.9796290344472" y2="760.0571602160753" stroke="#1A1A1A" stroke-width="1.4"/>
<ellipse cx="500" cy="740" rx="72" ry="25" fill="#FFFFFF" stroke="#1A1A1A" stroke-width="1.6"/>
<text x="500" y="745" text-anchor="middle" font-size="12.5" fill="#0D0D0D">Timestamp</text>
<line x1="595.1428571428571" y1="851.0" x2="520.5382588237417" y2="763.961301961032" stroke="#1A1A1A" stroke-width="1.4"/>
<ellipse cx="320" cy="820" rx="72" ry="25" fill="#FFFFFF" stroke="#1A1A1A" stroke-width="1.6"/>
<text x="320" y="825" text-anchor="middle" font-size="12.5" fill="#0D0D0D">HeartRate</text>
<line x1="530.0" y1="862.0" x2="382.39027563895957" y2="832.4780551277919" stroke="#1A1A1A" stroke-width="1.4"/>
<ellipse cx="500" cy="820" rx="72" ry="25" fill="#FFFFFF" stroke="#1A1A1A" stroke-width="1.6"/>
<text x="500" y="825" text-anchor="middle" font-size="12.5" fill="#0D0D0D">EDA</text>
<line x1="562.0" y1="851.0" x2="541.0684982836648" y2="840.5342491418323" stroke="#1A1A1A" stroke-width="1.4"/>
<ellipse cx="830" cy="650" rx="72" ry="25" fill="#FFFFFF" stroke="#1A1A1A" stroke-width="1.6"/>
<text x="830" y="655" text-anchor="middle" font-size="12.5" fill="#0D0D0D">Temperature</text>
<line x1="646.4782608695652" y1="851.0" x2="808.2411975995951" y2="673.8310692956816" stroke="#1A1A1A" stroke-width="1.4"/>
<ellipse cx="830" cy="720" rx="72" ry="25" fill="#FFFFFF" stroke="#1A1A1A" stroke-width="1.6"/>
<text x="830" y="725" text-anchor="middle" font-size="12.5" fill="#0D0D0D">AccelReading</text>
<line x1="658.0625" y1="851.0" x2="800.141928599449" y2="742.7490067813721" stroke="#1A1A1A" stroke-width="1.4"/>
<ellipse cx="620" cy="955" rx="72" ry="25" fill="#FFFFFF" stroke="#1A1A1A" stroke-width="1.6"/>
<text x="620" y="960" text-anchor="middle" font-size="12.5" fill="#0D0D0D">Location</text>
<line x1="620.0" y1="909.0" x2="620.0" y2="930.0" stroke="#1A1A1A" stroke-width="1.4"/>
<ellipse cx="540" cy="1110" rx="72" ry="25" fill="#FFFFFF" stroke="#1A1A1A" stroke-width="1.6"/>
<text x="540" y="1115" text-anchor="middle" font-size="12.5" fill="#0D0D0D">Latitude</text>
<ellipse cx="720" cy="1110" rx="72" ry="25" fill="#FFFFFF" stroke="#1A1A1A" stroke-width="1.6"/>
<text x="720" y="1115" text-anchor="middle" font-size="12.5" fill="#0D0D0D">Longitude</text>
<line x1="620" y1="955" x2="552.7008820902321" y2="1085.3920409501752" stroke="#1A1A1A" stroke-width="1.4"/>
<line x1="620" y1="955" x2="704.261043397652" y2="1085.6046172663605" stroke="#1A1A1A" stroke-width="1.4"/>
<ellipse cx="340" cy="1050" rx="72" ry="25" fill="#FFFFFF" stroke="#1A1A1A" stroke-width="1.6" stroke-dasharray="6,4"/>
<text x="340" y="1055" text-anchor="middle" font-size="12.5" font-style="italic" fill="#0D0D0D">StressStatus</text>
<line x1="572.2352941176471" y1="909.0" x2="375.74399765659155" y2="1028.2982871370693" stroke="#1A1A1A" stroke-width="1.4"/>
<ellipse cx="1300" cy="1080" rx="72" ry="25" fill="#FFFFFF" stroke="#1A1A1A" stroke-width="1.6"/>
<text x="1300" y="1085" text-anchor="middle" font-size="12.5" text-decoration="underline" fill="#0D0D0D">AlertID</text>
<line x1="1093.8181818181818" y1="1161.0" x2="1252.318200877596" y2="1098.7321353695158" stroke="#1A1A1A" stroke-width="1.4"/>
<ellipse cx="1300" cy="1148" rx="72" ry="25" fill="#FFFFFF" stroke="#1A1A1A" stroke-width="1.6"/>
<text x="1300" y="1153" text-anchor="middle" font-size="12.5" fill="#0D0D0D">Timestamp</text>
<line x1="1110.0" y1="1176.5" x2="1233.9038851174498" y2="1157.9144172323824" stroke="#1A1A1A" stroke-width="1.4"/>
<ellipse cx="1300" cy="1216" rx="72" ry="25" fill="#FFFFFF" stroke="#1A1A1A" stroke-width="1.6"/>
<text x="1300" y="1221" text-anchor="middle" font-size="12.5" fill="#0D0D0D">Message</text>
<line x1="1110.0" y1="1198.357142857143" x2="1230.4442956739308" y2="1209.541256026865" stroke="#1A1A1A" stroke-width="1.4"/>
<ellipse cx="1300" cy="1284" rx="72" ry="25" fill="#FFFFFF" stroke="#1A1A1A" stroke-width="1.6"/>
<ellipse cx="1300" cy="1284" rx="66" ry="19" fill="none" stroke="#1A1A1A" stroke-width="1.3"/>
<text x="1300" y="1289" text-anchor="middle" font-size="12.5" fill="#0D0D0D">DeliveryChannel</text>
<line x1="1106.3829787234042" y1="1219.0" x2="1248.2377640805691" y2="1266.622677941334" stroke="#1A1A1A" stroke-width="1.4"/>
<ellipse cx="620" cy="1570" rx="72" ry="25" fill="#FFFFFF" stroke="#1A1A1A" stroke-width="1.6"/>
<text x="620" y="1575" text-anchor="middle" font-size="12.5" fill="#0D0D0D">ConfidenceScore</text>
<line x1="620.0" y1="1489.0" x2="620.0" y2="1545.0" stroke="#1A1A1A" stroke-width="1.4"/>
<ellipse cx="1500" cy="1570" rx="72" ry="25" fill="#FFFFFF" stroke="#1A1A1A" stroke-width="1.6"/>
<text x="1500" y="1575" text-anchor="middle" font-size="12.5" fill="#0D0D0D">BreachDistance</text>
<line x1="1500.0" y1="1489.0" x2="1500.0" y2="1545.0" stroke="#1A1A1A" stroke-width="1.4"/>
<rect x="1640" y="1560" width="330" height="210" fill="#FFFFFF" stroke="#1A1A1A" stroke-width="1.4"/>
<text x="1652" y="1582" font-size="14" font-weight="700">Notation Key</text>
<rect x="1652" y="1593" width="28" height="18" fill="#F4F7FB" stroke="#1A1A1A"/>
<text x="1692" y="1607" font-size="12.5">Entity</text>
<ellipse cx="1666" cy="1628" rx="16" ry="10" fill="#FFFFFF" stroke="#1A1A1A"/>
<text x="1692" y="1633" font-size="12.5" text-decoration="underline">Attribute (PK underlined)</text>
<ellipse cx="1666" cy="1654" rx="16" ry="10" fill="#FFFFFF" stroke="#1A1A1A"/>
<ellipse cx="1666" cy="1654" rx="11" ry="6" fill="none" stroke="#1A1A1A"/>
<text x="1692" y="1659" font-size="12.5">Multivalued attribute</text>
<ellipse cx="1666" cy="1680" rx="16" ry="10" fill="#FFFFFF" stroke="#1A1A1A" stroke-dasharray="4,3"/>
<text x="1692" y="1685" font-size="12.5" font-style="italic">Derived attribute</text>
<polygon points="1666,1696 1684,1706 1666,1716 1648,1706" fill="#FCE9B0" stroke="#1A1A1A"/>
<text x="1692" y="1711" font-size="12.5">Relationship</text>
<line x1="1650" y1="1730" x2="1682" y2="1730" stroke="#1A1A1A" stroke-width="1.4"/>
<text x="1692" y="1735" font-size="12.5">Partial participation (single line)</text>
<line x1="1650" y1="1750" x2="1682" y2="1750" stroke="#1A1A1A" stroke-width="1.4"/>
<line x1="1650" y1="1754" x2="1682" y2="1754" stroke="#1A1A1A" stroke-width="1.4"/>
<text x="1692" y="1757" font-size="12.5">Total participation (double line)</text>
</svg>